<?xml version="1.0" encoding="UTF-8"?>
<svg width="500px" height="500px" viewBox="0 0 500 500" version="1.1" xmlns="http://www.w3.org/2000/svg" xmlns:xlink="http://www.w3.org/1999/xlink">
    <!-- Generator: Sketch 51.1 (57501) - http://www.bohemiancoding.com/sketch -->
    <title>favourite</title>
    <desc>Created with Sketch.</desc>
    <defs></defs>
    <g id="favourite" stroke="none" stroke-width="1" fill="none" fill-rule="evenodd">
        <path d="M250.12735,356.890047 L152.085393,415.712591 C147.82312,418.269841 142.294805,416.887646 139.737556,412.625373 C138.53959,410.628675 138.162115,408.245389 138.684434,405.976225 L164.331368,294.555617 L78.0911723,219.489341 C74.3419689,216.225912 73.9481708,210.54105 77.2115996,206.791847 C78.7403806,205.035501 80.8903743,203.940024 83.2098832,203.735569 L197.102517,193.696391 L241.845102,88.4803362 C243.790239,83.9061769 249.075174,81.7749338 253.649333,83.7200714 C255.792137,84.6312877 257.498381,86.3375324 258.409598,88.4803362 L303.152183,193.696391 L417.044816,203.735569 C421.996181,204.172012 425.656248,208.539693 425.219805,213.491057 C425.01535,215.810566 423.919873,217.96056 422.163527,219.489341 L335.923332,294.555617 L361.570265,405.976225 C362.685239,410.82012 359.662351,415.650739 354.818455,416.765713 C352.549291,417.288032 350.166004,416.910556 348.169306,415.712591 L250.12735,356.890047 Z" id="Star" fill="#4A4A4A" fill-rule="nonzero"></path>
    </g>
</svg>