<?xml version="1.0" encoding="UTF-8"?>
<svg width="500px" height="500px" viewBox="0 0 500 500" version="1.1" xmlns="http://www.w3.org/2000/svg" xmlns:xlink="http://www.w3.org/1999/xlink">
    <!-- Generator: Sketch 50 (54983) - http://www.bohemiancoding.com/sketch -->
    <title>home</title>
    <desc>Created with Sketch.</desc>
    <defs></defs>
    <g id="home" stroke="none" stroke-width="1" fill="none" fill-rule="evenodd">
        <path d="M389.749133,276.778566 L377.821339,446.355257 C377.710816,447.926544 376.403901,449.144761 374.828732,449.144761 L123.489972,449.144761 C121.914804,449.144761 120.607888,447.926544 120.497366,446.355257 L108.569572,276.778566 C108.45905,275.207279 107.152134,273.989062 105.576966,273.989062 L38,273.989062 C36.3431458,273.989062 35,272.645916 35,270.989062 C35,270.206161 35.3060491,269.454278 35.8528082,268.893932 L247.580593,51.904872 C248.737701,50.7190107 250.637053,50.6957016 251.822914,51.8528096 C251.840481,51.8699501 251.857836,51.8873056 251.874977,51.904872 L463.602762,268.893932 C464.75987,270.079793 464.736561,271.979145 463.550699,273.136253 C462.990354,273.683012 462.23847,273.989062 461.45557,273.989062 L392.741739,273.989062 C391.16657,273.989062 389.859655,275.207279 389.749133,276.778566 Z M249.727785,386.13143 C284.574756,386.13143 312.823808,365.809206 312.823808,340.740472 C312.823808,315.671737 284.574756,295.349513 249.727785,295.349513 C214.880814,295.349513 186.631762,315.671737 186.631762,340.740472 C186.631762,365.809206 214.880814,386.13143 249.727785,386.13143 Z" id="Combined-Shape" fill="#FFFFFF"></path>
    </g>
</svg>