<?xml version="1.0" encoding="UTF-8"?>
<svg width="500px" height="500px" viewBox="0 0 500 500" version="1.1" xmlns="http://www.w3.org/2000/svg" xmlns:xlink="http://www.w3.org/1999/xlink">
    <!-- Generator: Sketch 49.3 (51167) - http://www.bohemiancoding.com/sketch -->
    <title>localtimeline</title>
    <desc>Created with Sketch.</desc>
    <defs></defs>
    <g id="localtimeline" stroke="none" stroke-width="1" fill="none" fill-rule="evenodd">
        <g id="Group" transform="translate(291.000000, 38.000000)" fill="#FFFFFF">
            <path d="M31.2518093,257.999999 C45.4322668,241.471107 54,219.986104 54,196.5 C54,172.605254 45.1315274,150.78185 30.506536,134.141743 C42.1718312,141.4996 55.9938508,145.757916 70.8120091,145.757916 C89.2890551,145.757916 106.217297,139.137055 119.346685,128.14187 C164.115314,142.177163 188.874932,178.253404 193.625539,236.370595 C194.525436,247.379573 186.330404,257.033621 175.321426,257.933516 C174.779422,257.97782 174.235836,258 173.692023,258 L31.2518093,257.999999 Z" id="Combined-Shape"></path>
            <circle id="Oval-2" cx="70.5" cy="70.5" r="70.5"></circle>
        </g>
        <g id="Group" transform="translate(16.000000, 38.000000)" fill="#FFFFFF">
            <path d="M162.748191,258 L20.3074505,257.999999 C9.26175627,257.999999 0.307451856,249.045694 0.307451856,238 C0.307451856,237.456188 0.329631724,236.912602 0.373936161,236.370598 C5.14063498,178.05654 30.052131,141.933008 75.1084243,128 C88.2613821,139.080078 105.255629,145.757916 123.812009,145.757916 C138.065448,145.757916 151.397228,141.817984 162.774459,134.969396 C148.578314,151.502368 140,172.999398 140,196.5 C140,219.986104 148.567733,241.471107 162.748191,258 Z" id="Combined-Shape"></path>
            <circle id="Oval-2" cx="123.5" cy="70.5" r="70.5"></circle>
        </g>
        <g id="Group" transform="translate(95.000000, 145.000000)" fill="#FFFFFF">
            <path d="M216.91006,161.178974 C274.727602,179.367798 305.999451,226.899049 310.725605,303.772727 C311.403409,314.797606 303.015447,324.284505 291.990568,324.962309 C291.581959,324.98743 291.172676,325 290.763296,325 L20.2363883,325 C9.1906933,325 0.236388269,316.045695 0.236388269,305 C0.236388269,304.590619 0.248957679,304.181336 0.274078734,303.772727 C5.01581763,226.645559 36.4786067,179.05465 94.6624459,161 C111.1983,174.977945 132.56341,183.402293 155.892428,183.402293 C179.121708,183.402293 200.403837,175.049824 216.91006,161.178974 Z" id="Combined-Shape"></path>
            <circle id="Oval-2" cx="156" cy="89" r="89"></circle>
        </g>
    </g>
</svg>