<?xml version="1.0" encoding="UTF-8"?>
<svg width="500px" height="500px" viewBox="0 0 500 500" version="1.1" xmlns="http://www.w3.org/2000/svg" xmlns:xlink="http://www.w3.org/1999/xlink">
    <!-- Generator: Sketch 50 (54983) - http://www.bohemiancoding.com/sketch -->
    <title>stump</title>
    <desc>Created with Sketch.</desc>
    <defs></defs>
    <g id="stump" stroke="none" stroke-width="1" fill="none" fill-rule="evenodd">
        <path d="M74.984375,90 L409.984375,90 L425.984375,327.778589 L465.921875,408.339844 L363.732422,362.411741 L305.390625,410.576063 L247.048828,362.411741 L188.707031,408.339844 L130.365234,362.411741 L34,408.339844 L58.984375,327.778589 L74.984375,90 Z M131.000016,202.1875 C154.84682,243.151928 199.231607,270.6875 250.04767,270.6875 C300.863734,270.6875 345.248521,243.151928 369.095325,202.1875 C345.248501,161.22306 300.863723,133.6875 250.04767,133.6875 C199.231618,133.6875 154.84684,161.22306 131.000016,202.1875 Z" id="Combined-Shape" fill="#FFFFFF"></path>
        <path d="M172.00001,180 C187.665807,153.089054 216.823691,135 250.206499,135 C283.589307,135 312.747191,153.089054 328.412987,180 C312.747203,206.910938 283.589314,225 250.206499,225 C216.823683,225 187.665794,206.910938 172,179.999982 L172.00001,180 Z" id="Combined-Shape" fill="#FFFFFF"></path>
    </g>
</svg>