<?xml version="1.0" encoding="UTF-8"?>
<svg width="500px" height="500px" viewBox="0 0 500 500" version="1.1" xmlns="http://www.w3.org/2000/svg" xmlns:xlink="http://www.w3.org/1999/xlink">
    <!-- Generator: Sketch 49.3 (51167) - http://www.bohemiancoding.com/sketch -->
    <title>timeline</title>
    <desc>Created with Sketch.</desc>
    <defs></defs>
    <g id="timeline" stroke="none" stroke-width="1" fill="none" fill-rule="evenodd">
        <path d="M337.240864,185 C340.032611,207.763666 341.5,231.659755 341.5,256.125 C341.5,276.239046 340.508152,295.968384 338.603941,315 L161.896059,315 C159.991848,295.968384 159,276.239046 159,256.125 C159,231.659755 160.467389,207.763666 163.259136,185 L337.240864,185 Z M387.510572,185 L468.600702,185 C474.716447,205.598844 478,227.415965 478,250 C478,272.584035 474.716447,294.401156 468.600702,315 L388.784509,315 C390.576116,295.861832 391.5,276.152727 391.5,256.125 C391.5,231.795709 390.136633,207.936605 387.510572,185 Z M289.156207,474.650536 C276.434339,476.852426 263.351185,478 250,478 C236.84802,478 223.956132,476.886415 211.41348,474.748391 C204.516435,465.072316 197.757751,452.966455 191.49089,438.499488 C182.254716,417.177903 174.758669,392.282848 169.303827,365 L331.196173,365 C325.741331,392.282848 318.245284,417.177903 309.00911,438.499488 C302.763357,452.917728 296.029088,464.99074 289.156207,474.650536 Z M356.874236,451.451185 C367.583233,426.091123 376.029425,396.803077 381.898323,365 L446.915796,365 C425.547052,401.511069 394.314242,431.547087 356.874236,451.451185 Z M277.533009,23.6454851 C288.328241,34.4648624 299.263388,51.2526407 309.00911,73.7505115 C316.843858,91.8369253 323.426485,112.494659 328.573217,135 L171.926783,135 C177.073515,112.494659 183.656142,91.8369253 191.49089,73.7505115 C201.256929,51.2057384 212.217358,34.3948907 223.034505,23.577896 C231.878002,22.5358849 240.87642,22 250,22 C259.318816,22 268.507056,22.5590652 277.533009,23.6454851 Z M349.573082,44.8345195 C390.255275,64.6155233 424.172491,96.1403271 446.915796,135 L379.484215,135 C373.571824,106.827946 365.581619,80.8663169 355.74677,58.1626954 C353.758716,53.5733001 351.700281,49.1285798 349.573082,44.8345195 Z M112.989428,185 C110.363367,207.936605 109,231.795709 109,256.125 C109,276.152727 109.923884,295.861832 111.715491,315 L31.3992976,315 C25.283553,294.401156 22,272.584035 22,250 C22,227.415965 25.283553,205.598844 31.3992976,185 L112.989428,185 Z M143.770089,451.792401 C106.044077,431.891152 74.5754137,401.720317 53.0842038,365 L118.601677,365 C124.496915,396.945812 132.992634,426.353966 143.770089,451.792401 Z M151.085061,44.5158188 C148.9017,48.9085555 146.79051,53.4596613 144.75323,58.1626954 C134.918381,80.8663169 126.928176,106.827946 121.015785,135 L53.0842038,135 C75.9500442,95.9309617 110.110522,64.276042 151.085061,44.5158188 Z" id="Combined-Shape" fill="#FFFFFF"></path>
    </g>
</svg>